<?xml version="1.0" encoding="UTF-8" standalone="no" ?>
<!DOCTYPE svg PUBLIC "-//W3C//DTD SVG 1.1//EN" "http://www.w3.org/Graphics/SVG/1.1/DTD/svg11.dtd">
<svg xmlns="http://www.w3.org/2000/svg" xmlns:xlink="http://www.w3.org/1999/xlink" version="1.1" width="1280" height="720" viewBox="0 0 1280 720" xml:space="preserve">
<desc>Created with Fabric.js 5.2.4</desc>
<defs>
</defs>
<rect x="0" y="0" width="100%" height="100%" fill="transparent"></rect>
<g transform="matrix(1 0 0 1 640 360)" id="dfce1868-890d-4328-aeb5-5e88e55499eb"  >
<rect style="stroke: none; stroke-width: 1; stroke-dasharray: none; stroke-linecap: butt; stroke-dashoffset: 0; stroke-linejoin: miter; stroke-miterlimit: 4; fill: rgb(255,255,255); fill-rule: nonzero; opacity: 1; visibility: hidden;" vector-effect="non-scaling-stroke"  x="-640" y="-360" rx="0" ry="0" width="1280" height="720" />
</g>
<g transform="matrix(Infinity NaN NaN Infinity 0 0)" id="b9d182f4-3db4-4b63-b786-b5e047435317"  >
</g>
<g transform="matrix(0.67 0 0 1.33 1038.73 360)" style="filter: url(#SVGID_4);" id="b5b6e9b0-55f5-4a93-b16f-66535aab9c08"  >
<filter id="SVGID_4" y="-20%" height="140%" x="-20%" width="140%" >
	<feGaussianBlur in="SourceAlpha" stdDeviation="0"></feGaussianBlur>
	<feOffset dx="0" dy="0" result="oBlur" ></feOffset>
	<feFlood flood-color="rgb(158,43,43)" flood-opacity="1"/>
	<feComposite in2="oBlur" operator="in" />
	<feMerge>
		<feMergeNode></feMergeNode>
		<feMergeNode in="SourceGraphic"></feMergeNode>
	</feMerge>
</filter>
		<rect opacity="0" fill="rgb(0,0,0)" x="-353.75" y="-111.87" width="707.5" height="223.74"></rect>
		<text xml:space="preserve" font-family="Alegreya" font-size="198" font-style="normal" font-weight="900" style="stroke: none; stroke-width: 1; stroke-dasharray: none; stroke-linecap: butt; stroke-dashoffset: 0; stroke-linejoin: miter; stroke-miterlimit: 4; fill: rgb(22,21,21); fill-rule: nonzero; opacity: 0.97; white-space: pre;" ><tspan x="-353.75" y="62.2" >imageIn</tspan></text>
</g>
<g transform="matrix(16.81 0 0 14.7 399.47 340.95)" id="7f789f92-6203-426a-b5e1-3f919c6aaa7a"  >
<path style="stroke: rgb(0,0,0); stroke-width: 0; stroke-dasharray: none; stroke-linecap: butt; stroke-dashoffset: 0; stroke-linejoin: miter; stroke-miterlimit: 4; fill: rgb(0,0,0); fill-rule: nonzero; opacity: 0.79;" vector-effect="non-scaling-stroke"  transform=" translate(-25, -25)" d="M 25 3 C 12.861573 3 3 12.861581 3 25 C 3 32.355537 6.6250215 38.869524 12.179688 42.865234 C 12.466118 43.08347 12.76394 43.286167 13.072266 43.474609 C 16.51078 45.701226 20.603935 47 25 47 C 37.138427 47 47 37.138419 47 25 C 47 12.861581 37.138427 3 25 3 z M 25 5 C 36.057548 5 45 13.94246 45 25 C 45 33.41644 39.811865 40.593799 32.460938 43.548828 C 37.580921 40.333485 41 34.652522 41 28.169922 C 41 18.148963 32.854951 10.003906 22.833984 10.003906 C 13.997811 10.003906 6.6288268 16.339273 5.0078125 24.707031 C 5.1649505 13.785678 14.04081 5 25 5 z M 22.833984 12.003906 C 31.774071 12.003906 39 19.229841 39 28.169922 C 39 34.987477 34.791974 40.796189 28.832031 43.175781 C 32.581275 40.592714 35.046875 36.274668 35.046875 31.386719 C 35.046875 23.493161 28.625986 17.072266 20.732422 17.072266 C 13.784853 17.072266 7.9834222 22.048712 6.6914062 28.623047 C 6.6871981 28.471025 6.6679688 28.322977 6.6679688 28.169922 C 6.6679688 19.229841 13.893898 12.003906 22.833984 12.003906 z M 20.732422 19.072266 C 27.545106 19.072266 33.046875 24.574039 33.046875 31.386719 C 33.046875 36.850879 29.504109 41.463385 24.587891 43.078125 C 27.271278 41.172349 29.03125 38.046221 29.03125 34.513672 C 29.03125 28.723214 24.315853 24.007812 18.525391 24.007812 C 13.733465 24.007812 9.6859494 27.241221 8.4296875 31.636719 C 8.4280084 31.552773 8.4179688 31.471075 8.4179688 31.386719 C 8.4179687 24.574039 13.919738 19.072266 20.732422 19.072266 z M 18.525391 26.007812 C 23.234973 26.007812 27.03125 29.804092 27.03125 34.513672 C 27.03125 39.223251 23.234973 43.019531 18.525391 43.019531 C 17.113766 43.019531 15.787074 42.672847 14.617188 42.068359 C 14.023947 41.728751 13.457344 41.350182 12.931641 40.919922 C 11.148464 39.362585 10.019531 37.076008 10.019531 34.513672 C 10.019531 29.804092 13.815808 26.007813 18.525391 26.007812 z" stroke-linecap="round" />
</g>
</svg>